<svg width="480" height="320" viewBox="0 0 480 320" xmlns="http://www.w3.org/2000/svg">
  <defs>
    <linearGradient id="g1" x1="0" y1="0" x2="1" y2="1">
      <stop offset="0" stop-color="#25c2a0"/>
      <stop offset="1" stop-color="#2e8555"/>
    </linearGradient>
    <linearGradient id="g2" x1="0" y1="0" x2="1" y2="1">
      <stop offset="0" stop-color="#8a94a6"/>
      <stop offset="1" stop-color="#5b6472"/>
    </linearGradient>
  </defs>

  <rect x="20" y="60" width="150" height="200" rx="20" fill="url(#g2)"/>
  <rect x="38" y="82" width="114" height="30" rx="8" fill="#ffffff" opacity="0.9"/>
  <rect x="38" y="126" width="114" height="14" rx="7" fill="#ffffff" opacity="0.45"/>
  <rect x="38" y="150" width="86" height="14" rx="7" fill="#ffffff" opacity="0.45"/>
  <rect x="38" y="174" width="100" height="14" rx="7" fill="#ffffff" opacity="0.45"/>
  <text x="95" y="102" text-anchor="middle" font-family="sans-serif" font-size="14" font-weight="bold" fill="#3d4450">ERP</text>

  <rect x="310" y="60" width="150" height="200" rx="20" fill="url(#g1)"/>
  <circle cx="365" cy="100" r="20" fill="#ffffff" opacity="0.9"/>
  <path d="M365 88 L373 100 L365 112 L357 100 Z" fill="#2e8555"/>
  <circle cx="425" cy="100" r="20" fill="#ffffff" opacity="0.9"/>
  <path d="M425 88 L433 100 L425 112 L417 100 Z" fill="#2e8555"/>
  <circle cx="395" cy="160" r="20" fill="#ffffff" opacity="0.9"/>
  <path d="M395 148 L403 160 L395 172 L387 160 Z" fill="#2e8555"/>
  <text x="385" y="215" text-anchor="middle" font-family="sans-serif" font-size="14" font-weight="bold" fill="#ffffff">AI Agents</text>

  <path d="M170 160 Q240 40 310 160" fill="none" stroke="url(#g1)" stroke-width="14" stroke-linecap="round"/>
  <circle cx="240" cy="118" r="14" fill="#ffffff" stroke="url(#g1)" stroke-width="6"/>
  <path d="M234 118 L246 118 M240 112 L240 124" stroke="#2e8555" stroke-width="3" stroke-linecap="round"/>
  <text x="240" y="82" text-anchor="middle" font-family="sans-serif" font-size="15" font-weight="bold" fill="#2e8555">MCP</text>
</svg>